PathFileType	4	(X/Y/Z)	D:\TRACE\v60_Jaco2_6-2-23\JustArmDRS_Motion1_2-platform.trc
DataRate	CameraRate	NumFrames	NumMarkers	Units	OrigDataRate	OrigDataStartFrame	OrigNumFrames
100.00	100.00	      35	5	mm	100.00	2554	      6808
Frame#	Time	Left_Front			Right_Front			Left_Aft			Right_Aft			Post			
		X1	Y1	Z1	X2	Y2	Z2	X3	Y3	Z3	X4	Y4	Z4	X5	Y5	Z5	

2554	25.530	-776.59875	-19.51239	-645.17419	793.65741	-17.79586	-650.66687	-684.84406	26.76665	488.89996	757.55951	27.32115	498.72876	9.37338	1265.37756	-1022.28345	
2555	25.540	-777.31281	-19.53897	-645.09839	792.49011	-18.01223	-650.81854	-685.37549	26.88769	488.86633	756.95392	27.27365	498.61771	8.35905	1265.43579	-1022.42261	
2556	25.550	-778.24738	-19.81195	-645.05695	791.56348	-18.03567	-650.86340	-686.28741	27.00326	488.85052	755.79919	27.23914	498.26147	7.61875	1265.33667	-1022.54321	
2557	25.560	-779.00964	-19.94121	-645.14056	791.13068	-17.87804	-650.82617	-687.37701	27.09926	488.79361	755.24310	27.40020	498.54269	6.85381	1265.02490	-1022.52783	
2558	25.570	-779.67303	-19.79309	-645.40289	790.00610	-17.99553	-651.00848	-688.08563	27.16571	488.80609	754.17285	27.44626	498.61990	6.03918	1264.97559	-1022.65204	
2559	25.580	-780.79608	-19.83466	-645.27020	789.14868	-17.96013	-650.64563	-688.83228	27.15848	488.85229	753.45392	27.45116	498.59088	5.15670	1264.92688	-1022.99915	
2560	25.590	-781.56653	-20.01910	-645.12891	788.32074	-18.11649	-650.62451	-689.66858	27.27865	488.87943	752.63843	27.53983	498.55515	4.52000	1264.76416	-1023.34869	
2561	25.600	-782.52423	-20.09797	-645.13959	787.85760	-18.31959	-650.65039	-690.69739	27.28494	488.81729	751.94617	27.64669	498.53082	3.64578	1264.59790	-1023.61664	
2562	25.610	-783.20251	-20.01756	-645.33575	786.58722	-18.47458	-650.90356	-691.32764	27.12361	488.83530	750.55151	27.66892	498.67514	2.46340	1264.53845	-1023.98169	
2563	25.620	-784.42242	-19.88383	-645.43097	785.53143	-18.54329	-650.90332	-692.28809	27.23590	488.83502	750.01294	27.47979	498.67575	1.93377	1264.43787	-1024.11047	
2564	25.630	-785.22064	-20.13641	-645.25055	784.98254	-18.30826	-650.77161	-693.33685	27.28209	488.79733	749.25305	27.60777	498.69632	1.04778	1264.39819	-1024.42493	
2565	25.640	-786.03015	-20.19941	-645.38361	784.02826	-18.27048	-650.83618	-693.94244	27.21813	488.81311	748.13196	27.55287	498.60077	0.09348	1264.55566	-1024.32227	
2566	25.650	-786.64667	-20.22548	-645.39056	782.90442	-18.33652	-650.72070	-695.08679	27.33019	488.88138	747.14508	27.62809	498.75162	-1.11089	1264.60828	-1024.12537	
2567	25.660	-787.84717	-20.04816	-645.26691	782.30621	-18.36246	-650.60699	-696.02283	27.40426	488.83289	746.44281	27.64052	498.77896	-1.76263	1264.52185	-1023.96490	
2568	25.670	-788.59430	-20.20122	-645.20648	781.72174	-18.42361	-650.53864	-696.76239	27.36805	488.78687	745.54913	27.69870	498.66937	-2.43498	1264.46106	-1023.86676	
2569	25.680	-789.62158	-20.18720	-645.22174	780.31146	-18.46579	-650.64850	-697.76062	27.35979	488.80811	744.84064	27.68693	498.56671	-3.72833	1264.51099	-1023.45398	
2570	25.690	-790.40387	-20.04102	-645.31213	779.23724	-18.42857	-650.72418	-698.82391	27.42616	488.86902	743.62445	27.65051	498.57071	-4.51429	1264.48865	-1023.39362	
2571	25.700	-791.65527	-19.94010	-645.28455	778.60931	-18.32746	-650.78552	-699.53723	27.30425	488.93607	742.64319	27.57122	498.59802	-5.31842	1264.54810	-1023.37164	
2572	25.710	-792.28247	-20.05556	-645.07849	777.51959	-18.29362	-650.84503	-700.55432	27.30793	488.91568	741.94476	27.51052	498.62051	-6.19942	1264.53381	-1023.14697	
2573	25.720	-793.33862	-20.05173	-645.09668	776.59131	-18.28712	-650.62524	-701.49310	27.27262	489.00677	740.85870	27.47381	498.60272	-7.47540	1264.76489	-1022.99823	
2574	25.730	-794.25201	-19.89237	-645.28522	775.76880	-18.17867	-650.60034	-702.16132	27.05390	488.95023	739.95605	27.50945	498.70255	-8.08745	1264.78418	-1023.20258	
2575	25.740	-795.20300	-19.70770	-645.30438	774.76337	-18.13618	-650.79126	-703.35474	26.95915	488.98007	739.16284	27.40810	498.78918	-9.02389	1265.00745	-1023.40424	
2576	25.750	-796.22235	-19.71510	-645.16522	773.87085	-17.95116	-650.49469	-704.23505	26.99889	489.02130	738.13690	27.18523	498.87787	-10.31329	1265.23584	-1023.25708	
2577	25.760	-796.87488	-19.48710	-645.00403	772.82300	-17.91731	-650.52020	-705.23969	26.86269	489.06802	737.19739	27.14605	498.91690	-11.12662	1265.36865	-1022.87958	
2578	25.770	-798.35699	-19.50082	-644.76941	772.08380	-17.65376	-650.38501	-706.31378	26.95835	489.11499	736.10162	27.11768	498.99527	-11.74916	1265.50073	-1022.79498	
2579	25.780	-799.17969	-19.25711	-644.99347	770.90143	-17.52278	-650.51373	-707.21210	26.97673	489.18066	735.28394	27.12559	498.94583	-12.96940	1265.71887	-1022.61334	
2580	25.790	-800.02399	-19.19077	-644.78467	769.96259	-17.54195	-650.49640	-708.24670	26.88816	489.19385	734.11639	27.07984	499.04388	-14.07705	1265.83313	-1022.13574	
2581	25.800	-800.81079	-19.15135	-644.89630	768.82849	-17.60302	-650.54761	-709.19000	26.84498	489.37195	733.31952	26.88953	498.96613	-14.89103	1266.07349	-1021.83618	
2582	25.810	-802.09637	-19.06034	-644.82166	767.88287	-17.46911	-650.49530	-709.98328	26.76796	489.34485	732.29669	26.73042	498.82016	-16.13341	1266.19031	-1021.06000	
2583	25.820	-803.11127	-18.92238	-644.92004	767.04559	-17.26992	-650.32855	-711.65808	27.11484	489.54617	731.24286	26.75370	498.98563	-16.92852	1266.47498	-1020.62006	
2584	25.830	-803.78748	-18.82831	-644.79486	766.03693	-17.24904	-650.40094	-712.59357	26.97213	489.56265	730.30469	26.62712	498.97672	-17.78969	1266.95959	-1020.32544	
2585	25.840	-804.94501	-18.66395	-644.62183	765.27167	-17.01726	-650.13300	-713.64264	26.94649	489.57394	729.65204	26.49053	499.01736	-18.53598	1267.12561	-1019.78314	
2586	25.850	-805.95142	-18.29728	-644.80695	764.25482	-16.75142	-650.27393	-714.69122	26.75199	489.67331	728.02368	26.36536	499.23416	-19.76322	1267.25513	-1019.69812	
2587	25.860	-806.87201	-18.21412	-644.89514	763.14575	-16.61698	-650.25043	-715.47766	26.60761	489.79330	727.43994	26.18861	499.36047	-20.64356	1267.65601	-1019.71362	
2588	25.870	-807.63727	-18.24734	-644.55298	762.27063	-16.48144	-650.00653	-716.39374	26.43213	489.74438	726.46704	26.07228	499.40839	-21.66538	1267.89978	-1019.16638	
